<svg data-v-0dd9719b="" version="1.0" xmlns="http://www.w3.org/2000/svg" xmlns:xlink="http://www.w3.org/1999/xlink" width="100%" height="100%" viewBox="0 0 340.000000 250.000000" preserveAspectRatio="xMidYMid meet" color-interpolation-filters="sRGB" style="margin: auto;"> <rect data-v-0dd9719b="" x="0" y="0" width="100%" height="100%" fill="#fff" fill-opacity="1" class="background"></rect> <rect data-v-0dd9719b="" x="0" y="0" width="100%" height="100%" fill="url(#watermark)" fill-opacity="1" class="watermarklayer"></rect> <g data-v-0dd9719b="" fill="#333" class="icon-text-wrapper icon-svg-group iconsvg" transform="translate(64.15499877929688,96.67513275146484)"><g class="iconsvg-imagesvg" transform="translate(0,0)"><g><rect fill="#333" fill-opacity="0" stroke-width="2" x="0" y="0" width="60" height="56.649734690409204" class="image-rect"></rect> <svg x="0" y="0" width="60" height="56.649734690409204" filtersec="colorsb8199396051" class="image-svg-svg primary" style="overflow: visible;"><svg xmlns="http://www.w3.org/2000/svg" viewBox="0 0 98.5 93"><title>页面-1 (2)</title><g fill-rule="evenodd"><path d="M98.12 48h.38v45h-31V64.91c14.03-.85 25.77-7.62 30.62-16.91zM31 0v28.09C17 28.94 5.23 35.71.38 45H0V0z" fill="#0092b6"></path><path d="M45 33a59.71 59.71 0 0 1 15.5 2C43.28 39.64 31 51.77 31 66v27H0V65c.74-17.76 20.6-32 45-32z" fill="#ec0033"></path><path d="M98.5 0v28c-.72 17.76-20.58 32-45 32A59.71 59.71 0 0 1 38 58c17.22-4.63 29.5-16.76 29.5-31V0z" fill="#ec0033"></path></g></svg></svg> <!----></g></g> <g transform="translate(67,9.929868698120117)"><g data-gra="path-name" fill-rule="" class="tp-name iconsvg-namesvg"><g transform="scale(1)"><g><path d="M5.4-40.69L20.41-40.69 18.53-26.39 33.02-26.39 34.77-38.22 32.89-40.69 47.26-40.69 42.25-3.9 29.77-3.9 32.24-20.15 17.68-20.15 15.41-3.9 2.93-3.9 7.93-38.87 5.4-40.69ZM55.58-40.69L69.94-40.69 65.59-10.14 80.53-10.14 84.95-38.87 82.42-40.69 97.44-40.69 92.43-3.9 56.88-3.9Q54.99-3.9 54.05-5.13 53.1-6.37 53.1-8.26L53.1-8.26 57.46-38.87 55.58-40.69ZM105.75-40.69L120.77-40.69 118.89-26.39 133.38-26.39 135.13-38.22 133.25-40.69 147.62-40.69 142.61-3.9 130.13-3.9 132.6-20.15 118.04-20.15 115.77-3.9 103.28-3.9 108.29-38.87 105.75-40.69Z" transform="translate(-2.930000066757202, 40.689998626708984)"></path></g> <!----> <!----> <!----> <!----> <!----> <!----> <!----></g></g> <!----></g></g><defs v-gra="od"></defs></svg>